<?xml version="1.0" standalone="no"?>
<svg version="1.1" xmlns="http://www.w3.org/2000/svg"
 viewBox="226 220 544 374"
 preserveAspectRatio="xMidYMid meet">

<defs>
  <linearGradient id="blue" x1="3000" y1="5000" x2="5500" y2="8000" gradientUnits="userSpaceOnUse">
    <stop offset="0%" stop-color="#0b4a98"/>
    <stop offset="100%" stop-color="#1482e9"/>
  </linearGradient>
  <linearGradient id="grey" x1="3000" y1="5000" x2="5500" y2="8000" gradientUnits="userSpaceOnUse">
    <stop offset="0%" stop-color="#394354"/>
    <stop offset="100%" stop-color="#4b5f7b"/>
  </linearGradient>
</defs>

<g transform="translate(0.000000,1024.000000) scale(0.100000,-0.100000)"
stroke="none">
<path fill="url(#blue)" d="M4889 7936 c-2 -2 -3 -115 -1 -250 l3 -246 294 0 295 0 0 250 0 250
-293 0 c-162 0 -296 -2 -298 -4z"/>
<path fill="url(#blue)" d="M3610 7070 l0 -250 404 0 c359 0 405 2 410 16 8 20 8 432 0 462 l-6
22 -404 0 -404 0 0 -250z"/>
<path fill="url(#blue)" d="M4535 7307 c-3 -7 -4 -118 -3 -247 l3 -235 475 0 475 0 0 245 0 245
-473 3 c-377 2 -474 0 -477 -11z"/>
<path fill="url(#blue)" d="M6427 7163 c-2 -5 -14 -37 -26 -73 -62 -191 -92 -455 -73 -647 7 -65
15 -137 18 -160 6 -39 5 -42 -35 -71 -52 -38 -168 -87 -258 -109 -62 -16 -209
-17 -1750 -20 -1321 -3 -1683 -6 -1684 -16 -3 -46 5 -126 22 -207 26 -120 66
-257 79 -265 6 -4 56 1 113 10 188 30 360 45 587 52 415 11 731 -26 1300 -150
480 -105 604 -125 865 -134 288 -9 459 24 680 133 135 67 265 158 368 259 42
42 77 72 77 67 0 -31 -190 -238 -295 -323 -54 -43 -156 -109 -246 -159 l-74
-42 205 6 c113 3 227 9 253 12 47 7 49 8 89 78 63 107 135 274 188 436 27 80
50 154 52 164 2 16 20 23 85 37 169 36 336 131 460 262 97 103 195 249 174
261 -4 3 -53 17 -107 30 -174 44 -386 54 -569 29 l-41 -5 -18 58 c-56 181
-177 336 -355 456 -56 38 -76 45 -84 31z"/>
<path fill="url(#blue)" d="M3032 6702 c-9 -7 -12 -64 -10 -253 l3 -244 440 0 440 0 0 250 0 250
-430 2 c-236 2 -436 -1 -443 -5z"/>
<path fill="url(#blue)" d="M4034 6697 c-2 -7 -3 -120 -2 -252 l3 -240 450 0 450 0 3 244 c2 189
-1 246 -10 253 -7 4 -210 8 -451 8 -345 0 -439 -3 -443 -13z"/>
<path fill="url(#blue)" d="M5073 6703 c-10 -3 -13 -63 -13 -248 0 -212 2 -244 16 -249 9 -3 208
-6 444 -6 381 0 429 2 434 16 11 28 7 454 -4 475 -10 18 -25 19 -438 18 -235
0 -433 -3 -439 -6z"/>
<path fill="url(#blue)" d="M3180 5500 c-295 -29 -591 -98 -770 -179 l-45 -21 155 8 c237 11 719
8 870 -7 337 -31 552 -73 1030 -201 453 -122 668 -166 965 -200 249 -28 417
-34 615 -21 514 35 884 142 1190 346 95 63 256 203 245 213 -2 3 -13 -2 -22
-10 -19 -17 -124 -63 -243 -108 -154 -57 -409 -116 -640 -147 -210 -28 -764
-26 -990 5 -233 31 -449 71 -871 162 -427 93 -593 123 -779 145 -160 19 -575
27 -710 15z"/>
<path fill="url(#grey)" d="M2900 5149 c288 -411 780 -657 1470 -734 350 -40 800 -20 1152 9
c411 23 815 140 1129 326 104 62 293 199 285 207 -2 3 -15 -2 -28 -11
-74 -48 -473 -162 -698 -200 -566 -95 -1049 -42 -1885 209 -552 165 -811 213
-1214 222 l-234 6 23 -34z"/>
</g>
</svg>
