<svg xmlns="http://www.w3.org/2000/svg" viewBox="267.6 186.7 473.5 294.6">
<defs>
  <linearGradient id="g" x1="0" y1="0" x2="1" y2="1">
    <stop offset="0%" stop-color="#ef4444"/>
    <stop offset="100%" stop-color="#fb923c"/>
  </linearGradient>
</defs>
<path fill="url(#g)" d="
M411.300110,303.404999
	C389.189941,304.797028 367.870056,307.920837 347.767120,315.564850
	C345.705994,313.592438 346.076416,311.664673 346.110168,309.895630
	C346.456543,291.755310 347.016357,273.614075 346.120728,255.476639
	C345.935272,251.720779 348.391388,250.784851 351.171722,249.753555
	C380.683685,238.806641 410.189178,227.842102 439.674500,216.823563
	C463.386536,207.962463 487.068695,199.021347 510.763153,190.113113
	C513.107544,189.231720 515.271057,188.662521 517.963989,189.527969
	C554.890076,201.395233 591.862244,213.119095 628.828003,224.862854
	C636.195496,227.203445 636.235779,227.173813 636.241272,234.753418
	C636.258850,258.918427 636.196289,283.083679 636.313782,307.248108
	C636.331177,310.822113 635.379211,313.020660 631.928162,314.632050
	C609.538147,325.086548 586.024292,328.656586 561.451538,327.626343
	C537.222046,326.610443 514.070007,320.637329 491.148285,313.583008
	C465.224792,305.604950 438.774139,302.550293 411.300110,303.404999
M579.895935,231.578720
	C577.039185,230.846436 574.282349,229.614212 571.288513,229.634232
	C569.881531,231.625244 569.585571,234.150436 570.846985,235.377930
	C574.156982,238.598907 573.230896,242.430969 573.245056,246.126099
	C573.321045,265.940521 573.278809,285.755341 573.336853,305.569885
	C573.349915,310.033325 575.132202,311.442902 579.064392,310.615417
	C582.465210,309.899750 581.747803,307.207245 581.754272,305.038940
	C581.813110,285.224396 581.770630,265.409607 581.812866,245.595001
	C581.816956,243.681000 581.442749,241.753922 583.067139,239.981522
	C587.086548,235.595779 586.538452,234.031250 579.895935,231.578720
M547.875488,234.890976
	C547.834106,232.808395 548.669128,231.231232 549.945923,229.507889
	C551.895325,226.876740 551.732788,224.076309 548.066101,222.756989
	C544.519958,221.481064 541.021973,219.931793 537.150085,219.702469
	C536.037354,221.984207 535.461365,224.414856 537.292542,225.896942
	C540.104675,228.172913 540.015991,231.011765 540.019897,234.005371
	C540.048767,256.329437 540.045776,278.653564 540.119019,300.977478
	C540.138550,306.924225 541.221802,307.931610 547.863159,308.044617
	C547.863159,283.961487 547.863159,259.884460 547.875488,234.890976
M613.722778,263.506073
	C614.411438,257.604126 611.827332,251.280304 616.358276,245.818542
	C617.320557,244.658661 616.598999,242.220459 614.799744,241.606888
	C611.285828,240.408569 607.893372,238.473465 603.861145,238.754272
	C603.269409,240.423294 602.778198,242.267944 603.731262,243.268402
	C607.229614,246.940689 606.113892,251.377502 606.140869,255.573685
	C606.238342,270.726471 606.157166,285.880310 606.214355,301.033478
	C606.221985,303.045197 605.584900,305.847382 609.043030,305.695251
	C611.872437,305.570770 613.733521,304.126862 613.685730,300.971161
	C613.665527,299.639709 613.723755,298.307220 613.724121,296.975220
	C613.726685,286.151276 613.723938,275.327362 613.722778,263.506073
z"/>
<path fill="url(#g)" d="
M296.552155,422.458649
	C274.516205,400.304291 269.611603,372.947968 282.335052,344.093109
	C291.815430,322.593140 307.123901,306.000854 325.995880,292.430237
	C326.653656,291.957245 327.317291,291.352356 328.317017,292.055359
	C328.385345,294.366302 326.289276,295.247131 325.057526,296.650604
	C310.470642,313.270844 300.569458,331.936798 300.262421,354.599792
	C300.017975,372.642090 307.726654,387.169861 321.274323,398.603943
	C337.598877,412.381683 357.151825,418.673157 377.898071,421.648590
	C400.792816,424.932129 423.706238,424.516754 446.600433,421.299225
	C490.398865,415.143860 531.145569,400.217621 569.316040,378.189789
	C605.639587,357.227844 638.049438,331.248352 666.570251,300.470856
	C671.429321,295.227356 671.334229,295.173950 666.175659,290.492523
	C662.131165,286.822113 658.135742,283.097626 652.944580,278.315826
	C681.911133,271.614868 709.747925,265.175262 739.143494,258.375061
	C730.091614,287.879089 721.410889,316.173462 712.416748,345.489349
	C706.244568,339.886810 703.652832,332.481110 697.183899,327.169220
	C693.610168,330.926971 690.075867,334.599121 686.589539,338.316254
	C662.720520,363.765564 635.572327,385.110809 605.666931,403.007111
	C562.140076,429.054993 515.281799,446.105072 465.263733,454.230743
	C427.625183,460.345306 389.966248,460.928040 352.736359,451.281860
	C332.059265,445.924438 312.674316,437.661285 296.552155,422.458649
z"/>
<path fill="url(#g)" d="
M486.875000,323.951263
	C504.501587,328.469696 521.624756,333.308777 539.244385,336.034637
	C560.434753,339.312897 581.610168,340.134155 602.804688,336.130157
	C604.564392,335.797699 606.339294,335.226105 608.486877,336.056702
	C607.595642,338.892242 604.948914,339.985107 603.083557,341.636139
	C591.657104,351.749695 578.777039,359.765289 565.088989,366.328125
	C548.449646,374.306030 531.071411,372.552460 513.746155,368.807037
	C492.589600,364.233276 472.224823,356.709351 451.122437,351.920227
	C415.183014,343.763916 379.333588,342.140259 343.646393,353.301147
	C336.155975,355.643707 328.962097,358.734436 322.094879,362.492615
	C318.889099,364.247070 317.168060,363.570435 316.101746,360.291809
	C316.050354,360.133759 315.976135,359.983246 315.921692,359.826080
	C309.470123,341.199188 309.164276,344.996735 324.072388,336.807343
	C345.524353,325.023315 368.709076,319.224182 392.986786,316.442963
	C424.735107,312.805939 455.717377,316.279327 486.875000,323.951263
z"/>
<path fill="url(#g)" d="
M617.991272,436.991394
	C604.836670,449.789948 591.242493,461.428864 575.141724,470.314056
	C572.970825,467.217010 571.152100,464.475616 569.184875,461.845306
	C564.586609,455.697113 563.781921,455.442108 556.651611,457.947388
	C539.680237,463.910400 522.542725,469.313782 504.840729,472.662903
	C476.430908,478.037933 448.009003,479.255646 419.628296,472.361755
	C417.929626,471.949127 416.116058,471.822906 413.778076,469.480011
	C462.366669,468.810089 507.675903,457.718597 551.626770,440.543854
	C595.543579,423.382446 635.957642,400.309204 671.357910,367.717926
	C671.916809,371.004242 670.715637,372.882141 669.875183,374.748077
	C660.804932,394.885406 649.790222,413.844055 635.544983,430.813538
	C634.226257,432.384369 632.851685,435.109558 630.400330,433.063049
	C626.162720,429.525330 623.333374,431.378845 620.506531,434.780121
	C619.876953,435.537628 619.006836,436.095184 617.991272,436.991394
z"/>
<path fill="url(#g)" d="
M472.443146,394.661865
	C443.443909,386.054291 414.696686,378.309998 384.379944,380.254333
	C370.154083,381.166718 356.314667,383.829468 343.467499,390.257721
	C340.411652,391.786774 338.368042,391.537415 335.976959,389.208710
	C330.654205,384.024719 324.999695,379.161285 320.744965,372.331635
	C329.594788,366.776031 338.773285,363.410767 348.201904,360.846069
	C383.943024,351.124268 419.337036,354.447296 454.619476,363.774017
	C478.724579,370.146088 502.572632,377.534332 527.065308,382.411713
	C528.761353,382.749451 530.763672,382.654175 532.148254,384.896545
	C526.983643,387.736023 521.428589,389.373871 516.049316,391.398285
	C512.625854,392.686676 509.113434,393.738281 505.689392,395.025055
	C494.692535,399.157806 483.738892,400.079224 472.443146,394.661865
z"/>
<path fill="url(#g)" d="
M377.666260,391.422485
	C396.854889,386.352753 415.059906,389.935669 433.122314,395.156647
	C442.232300,397.789886 451.276672,400.650848 460.341400,403.439117
	C461.709229,403.859863 463.409485,403.730316 464.124969,405.429688
	C446.960052,416.216370 369.766907,413.672241 352.872894,401.374268
	C360.691559,396.757721 368.796814,393.724670 377.666260,391.422485
z"/>
</svg>
